<mxfile host="app.diagrams.net" modified="2023-03-29T15:26:09.393Z" agent="Mozilla/5.0 (Macintosh; Intel Mac OS X 10_15_7) AppleWebKit/537.36 (KHTML, like Gecko) Chrome/108.0.0.0 Safari/537.36" version="21.1.2" etag="1B9xxl0T35SCjtGxIzld" type="github">
  <diagram name="第 1 页" id="AwXz4Nw7xv6Vq-bA4FQ1">
    <mxGraphModel>
      <root>
        <mxCell id="0" />
        <mxCell id="1" parent="0" />
      </root>
    </mxGraphModel>
  </diagram>
</mxfile>
